<?xml version="1.0" encoding="utf-8" standalone="no"?>
<!DOCTYPE svg PUBLIC "-//W3C//DTD SVG 1.1//EN"
  "http://www.w3.org/Graphics/SVG/1.1/DTD/svg11.dtd">
<svg height="345.6pt" version="1.1" viewBox="0 0 460.8 345.6" width="460.8pt" xmlns="http://www.w3.org/2000/svg" xmlns:xlink="http://www.w3.org/1999/xlink">
 <metadata>
  <rdf:RDF xmlns:cc="http://creativecommons.org/ns#" xmlns:dc="http://purl.org/dc/elements/1.1/" xmlns:rdf="http://www.w3.org/1999/02/22-rdf-syntax-ns#">
   <cc:Work>
    <dc:type rdf:resource="http://purl.org/dc/dcmitype/StillImage"/>
    <dc:date>2021-05-22T23:05:42.676590</dc:date>
    <dc:format>image/svg+xml</dc:format>
    <dc:creator>
     <cc:Agent>
      <dc:title>Matplotlib v3.4.2, https://matplotlib.org/</dc:title>
     </cc:Agent>
    </dc:creator>
   </cc:Work>
  </rdf:RDF>
 </metadata>
 <defs>
  <style type="text/css">*{stroke-linecap:butt;stroke-linejoin:round;}</style>
 </defs>
 <g id="figure_1">
  <g id="patch_1">
   <path d="M 0 345.6 
L 460.8 345.6 
L 460.8 0 
L 0 0 
z
" style="fill:#ffffff;"/>
  </g>
  <g id="axes_1">
   <g id="patch_2">
    <path d="M 87.6 304.44 
L 232.44 304.44 
L 232.44 10 
L 87.6 10 
z
" style="fill:#ffffff;"/>
   </g>
   <g id="patch_3">
    <path clip-path="url(#p56563d0b12)" d="M 87.6 291.056364 
L 144.462855 291.056364 
L 144.462855 284.972893 
L 87.6 284.972893 
z
" style="fill:#1f77b4;"/>
   </g>
   <g id="patch_4">
    <path clip-path="url(#p56563d0b12)" d="M 87.6 266.722479 
L 185.912883 266.722479 
L 185.912883 260.639008 
L 87.6 260.639008 
z
" style="fill:#1f77b4;"/>
   </g>
   <g id="patch_5">
    <path clip-path="url(#p56563d0b12)" d="M 87.6 242.388595 
L 201.783653 242.388595 
L 201.783653 236.305124 
L 87.6 236.305124 
z
" style="fill:#1f77b4;"/>
   </g>
   <g id="patch_6">
    <path clip-path="url(#p56563d0b12)" d="M 87.6 218.054711 
L 214.023857 218.054711 
L 214.023857 211.97124 
L 87.6 211.97124 
z
" style="fill:#1f77b4;"/>
   </g>
   <g id="patch_7">
    <path clip-path="url(#p56563d0b12)" d="M 87.6 193.720826 
L 207.471997 193.720826 
L 207.471997 187.637355 
L 87.6 187.637355 
z
" style="fill:#1f77b4;"/>
   </g>
   <g id="patch_8">
    <path clip-path="url(#p56563d0b12)" d="M 87.6 169.386942 
L 221.569139 169.386942 
L 221.569139 163.303471 
L 87.6 163.303471 
z
" style="fill:#1f77b4;"/>
   </g>
   <g id="patch_9">
    <path clip-path="url(#p56563d0b12)" d="M 87.6 145.053058 
L 201.700805 145.053058 
L 201.700805 138.969587 
L 87.6 138.969587 
z
" style="fill:#1f77b4;"/>
   </g>
   <g id="patch_10">
    <path clip-path="url(#p56563d0b12)" d="M 87.6 120.719174 
L 158.129892 120.719174 
L 158.129892 114.635702 
L 87.6 114.635702 
z
" style="fill:#1f77b4;"/>
   </g>
   <g id="patch_11">
    <path clip-path="url(#p56563d0b12)" d="M 87.6 96.385289 
L 214.278913 96.385289 
L 214.278913 90.301818 
L 87.6 90.301818 
z
" style="fill:#1f77b4;"/>
   </g>
   <g id="patch_12">
    <path clip-path="url(#p56563d0b12)" d="M 87.6 72.051405 
L 225.542857 72.051405 
L 225.542857 65.967934 
L 87.6 65.967934 
z
" style="fill:#1f77b4;"/>
   </g>
   <g id="patch_13">
    <path clip-path="url(#p56563d0b12)" d="M 87.6 47.717521 
L 190.731049 47.717521 
L 190.731049 41.63405 
L 87.6 41.63405 
z
" style="fill:#1f77b4;"/>
   </g>
   <g id="patch_14">
    <path clip-path="url(#p56563d0b12)" d="M 87.6 284.972893 
L 117.388155 284.972893 
L 117.388155 278.889421 
L 87.6 278.889421 
z
" style="fill:#ff7f0e;"/>
   </g>
   <g id="patch_15">
    <path clip-path="url(#p56563d0b12)" d="M 87.6 260.639008 
L 164.209515 260.639008 
L 164.209515 254.555537 
L 87.6 254.555537 
z
" style="fill:#ff7f0e;"/>
   </g>
   <g id="patch_16">
    <path clip-path="url(#p56563d0b12)" d="M 87.6 236.305124 
L 169.804445 236.305124 
L 169.804445 230.221653 
L 87.6 230.221653 
z
" style="fill:#ff7f0e;"/>
   </g>
   <g id="patch_17">
    <path clip-path="url(#p56563d0b12)" d="M 87.6 211.97124 
L 123.351216 211.97124 
L 123.351216 205.887769 
L 87.6 205.887769 
z
" style="fill:#ff7f0e;"/>
   </g>
   <g id="patch_18">
    <path clip-path="url(#p56563d0b12)" d="M 87.6 187.637355 
L 186.000767 187.637355 
L 186.000767 181.553884 
L 87.6 181.553884 
z
" style="fill:#ff7f0e;"/>
   </g>
   <g id="patch_19">
    <path clip-path="url(#p56563d0b12)" d="M 87.6 163.303471 
L 180.64878 163.303471 
L 180.64878 157.22 
L 87.6 157.22 
z
" style="fill:#ff7f0e;"/>
   </g>
   <g id="patch_20">
    <path clip-path="url(#p56563d0b12)" d="M 87.6 138.969587 
L 138.511114 138.969587 
L 138.511114 132.886116 
L 87.6 132.886116 
z
" style="fill:#ff7f0e;"/>
   </g>
   <g id="patch_21">
    <path clip-path="url(#p56563d0b12)" d="M 87.6 114.635702 
L 87.6 114.635702 
L 87.6 108.552231 
L 87.6 108.552231 
z
" style="fill:#ff7f0e;"/>
   </g>
   <g id="patch_22">
    <path clip-path="url(#p56563d0b12)" d="M 87.6 90.301818 
L 162.438196 90.301818 
L 162.438196 84.218347 
L 87.6 84.218347 
z
" style="fill:#ff7f0e;"/>
   </g>
   <g id="patch_23">
    <path clip-path="url(#p56563d0b12)" d="M 87.6 65.967934 
L 190.235996 65.967934 
L 190.235996 59.884463 
L 87.6 59.884463 
z
" style="fill:#ff7f0e;"/>
   </g>
   <g id="patch_24">
    <path clip-path="url(#p56563d0b12)" d="M 87.6 41.63405 
L 152.150819 41.63405 
L 152.150819 35.550579 
L 87.6 35.550579 
z
" style="fill:#ff7f0e;"/>
   </g>
   <g id="patch_25">
    <path clip-path="url(#p56563d0b12)" d="M 87.6 278.889421 
L 117.594325 278.889421 
L 117.594325 272.80595 
L 87.6 272.80595 
z
" style="fill:#2ca02c;"/>
   </g>
   <g id="patch_26">
    <path clip-path="url(#p56563d0b12)" d="M 87.6 254.555537 
L 134.686434 254.555537 
L 134.686434 248.472066 
L 87.6 248.472066 
z
" style="fill:#2ca02c;"/>
   </g>
   <g id="patch_27">
    <path clip-path="url(#p56563d0b12)" d="M 87.6 230.221653 
L 178.551907 230.221653 
L 178.551907 224.138182 
L 87.6 224.138182 
z
" style="fill:#2ca02c;"/>
   </g>
   <g id="patch_28">
    <path clip-path="url(#p56563d0b12)" d="M 87.6 205.887769 
L 126.794358 205.887769 
L 126.794358 199.804298 
L 87.6 199.804298 
z
" style="fill:#2ca02c;"/>
   </g>
   <g id="patch_29">
    <path clip-path="url(#p56563d0b12)" d="M 87.6 181.553884 
L 211.095221 181.553884 
L 211.095221 175.470413 
L 87.6 175.470413 
z
" style="fill:#2ca02c;"/>
   </g>
   <g id="patch_30">
    <path clip-path="url(#p56563d0b12)" d="M 87.6 157.22 
L 171.354648 157.22 
L 171.354648 151.136529 
L 87.6 151.136529 
z
" style="fill:#2ca02c;"/>
   </g>
   <g id="patch_31">
    <path clip-path="url(#p56563d0b12)" d="M 87.6 132.886116 
L 169.626925 132.886116 
L 169.626925 126.802645 
L 87.6 126.802645 
z
" style="fill:#2ca02c;"/>
   </g>
   <g id="patch_32">
    <path clip-path="url(#p56563d0b12)" d="M 87.6 108.552231 
L 87.6 108.552231 
L 87.6 102.46876 
L 87.6 102.46876 
z
" style="fill:#2ca02c;"/>
   </g>
   <g id="patch_33">
    <path clip-path="url(#p56563d0b12)" d="M 87.6 84.218347 
L 164.882437 84.218347 
L 164.882437 78.134876 
L 87.6 78.134876 
z
" style="fill:#2ca02c;"/>
   </g>
   <g id="patch_34">
    <path clip-path="url(#p56563d0b12)" d="M 87.6 59.884463 
L 188.318589 59.884463 
L 188.318589 53.800992 
L 87.6 53.800992 
z
" style="fill:#2ca02c;"/>
   </g>
   <g id="patch_35">
    <path clip-path="url(#p56563d0b12)" d="M 87.6 35.550579 
L 153.744449 35.550579 
L 153.744449 29.467107 
L 87.6 29.467107 
z
" style="fill:#2ca02c;"/>
   </g>
   <g id="patch_36">
    <path clip-path="url(#p56563d0b12)" d="M 87.6 272.80595 
L 106.055488 272.80595 
L 106.055488 266.722479 
L 87.6 266.722479 
z
" style="fill:#d62728;"/>
   </g>
   <g id="patch_37">
    <path clip-path="url(#p56563d0b12)" d="M 87.6 248.472066 
L 145.759727 248.472066 
L 145.759727 242.388595 
L 87.6 242.388595 
z
" style="fill:#d62728;"/>
   </g>
   <g id="patch_38">
    <path clip-path="url(#p56563d0b12)" d="M 87.6 224.138182 
L 174.630577 224.138182 
L 174.630577 218.054711 
L 87.6 218.054711 
z
" style="fill:#d62728;"/>
   </g>
   <g id="patch_39">
    <path clip-path="url(#p56563d0b12)" d="M 87.6 199.804298 
L 131.590697 199.804298 
L 131.590697 193.720826 
L 87.6 193.720826 
z
" style="fill:#d62728;"/>
   </g>
   <g id="patch_40">
    <path clip-path="url(#p56563d0b12)" d="M 87.6 175.470413 
L 140.219122 175.470413 
L 140.219122 169.386942 
L 87.6 169.386942 
z
" style="fill:#d62728;"/>
   </g>
   <g id="patch_41">
    <path clip-path="url(#p56563d0b12)" d="M 87.6 151.136529 
L 156.946671 151.136529 
L 156.946671 145.053058 
L 87.6 145.053058 
z
" style="fill:#d62728;"/>
   </g>
   <g id="patch_42">
    <path clip-path="url(#p56563d0b12)" d="M 87.6 126.802645 
L 144.456204 126.802645 
L 144.456204 120.719174 
L 87.6 120.719174 
z
" style="fill:#d62728;"/>
   </g>
   <g id="patch_43">
    <path clip-path="url(#p56563d0b12)" d="M 87.6 102.46876 
L 137.978494 102.46876 
L 137.978494 96.385289 
L 87.6 96.385289 
z
" style="fill:#d62728;"/>
   </g>
   <g id="patch_44">
    <path clip-path="url(#p56563d0b12)" d="M 87.6 78.134876 
L 130.39697 78.134876 
L 130.39697 72.051405 
L 87.6 72.051405 
z
" style="fill:#d62728;"/>
   </g>
   <g id="patch_45">
    <path clip-path="url(#p56563d0b12)" d="M 87.6 53.800992 
L 184.232312 53.800992 
L 184.232312 47.717521 
L 87.6 47.717521 
z
" style="fill:#d62728;"/>
   </g>
   <g id="patch_46">
    <path clip-path="url(#p56563d0b12)" d="M 87.6 29.467107 
L 139.651122 29.467107 
L 139.651122 23.383636 
L 87.6 23.383636 
z
" style="fill:#d62728;"/>
   </g>
   <g id="matplotlib.axis_1">
    <g id="xtick_1">
     <g id="line2d_1">
      <defs>
       <path d="M 0 0 
L 0 3.5 
" id="m22b9518693" style="stroke:#000000;stroke-width:0.8;"/>
      </defs>
      <g>
       <use style="stroke:#000000;stroke-width:0.8;" x="87.6" xlink:href="#m22b9518693" y="304.44"/>
      </g>
     </g>
     <g id="text_1">
      <!-- 0 -->
      <g transform="translate(84.41875 319.038437)scale(0.1 -0.1)">
       <defs>
        <path d="M 2034 4250 
Q 1547 4250 1301 3770 
Q 1056 3291 1056 2328 
Q 1056 1369 1301 889 
Q 1547 409 2034 409 
Q 2525 409 2770 889 
Q 3016 1369 3016 2328 
Q 3016 3291 2770 3770 
Q 2525 4250 2034 4250 
z
M 2034 4750 
Q 2819 4750 3233 4129 
Q 3647 3509 3647 2328 
Q 3647 1150 3233 529 
Q 2819 -91 2034 -91 
Q 1250 -91 836 529 
Q 422 1150 422 2328 
Q 422 3509 836 4129 
Q 1250 4750 2034 4750 
z
" id="DejaVuSans-30" transform="scale(0.015625)"/>
       </defs>
       <use xlink:href="#DejaVuSans-30"/>
      </g>
     </g>
    </g>
    <g id="xtick_2">
     <g id="line2d_2">
      <g>
       <use style="stroke:#000000;stroke-width:0.8;" x="127.902795" xlink:href="#m22b9518693" y="304.44"/>
      </g>
     </g>
     <g id="text_2">
      <!-- 20 -->
      <g transform="translate(121.540295 319.038437)scale(0.1 -0.1)">
       <defs>
        <path d="M 1228 531 
L 3431 531 
L 3431 0 
L 469 0 
L 469 531 
Q 828 903 1448 1529 
Q 2069 2156 2228 2338 
Q 2531 2678 2651 2914 
Q 2772 3150 2772 3378 
Q 2772 3750 2511 3984 
Q 2250 4219 1831 4219 
Q 1534 4219 1204 4116 
Q 875 4013 500 3803 
L 500 4441 
Q 881 4594 1212 4672 
Q 1544 4750 1819 4750 
Q 2544 4750 2975 4387 
Q 3406 4025 3406 3419 
Q 3406 3131 3298 2873 
Q 3191 2616 2906 2266 
Q 2828 2175 2409 1742 
Q 1991 1309 1228 531 
z
" id="DejaVuSans-32" transform="scale(0.015625)"/>
       </defs>
       <use xlink:href="#DejaVuSans-32"/>
       <use x="63.623047" xlink:href="#DejaVuSans-30"/>
      </g>
     </g>
    </g>
    <g id="xtick_3">
     <g id="line2d_3">
      <g>
       <use style="stroke:#000000;stroke-width:0.8;" x="168.205591" xlink:href="#m22b9518693" y="304.44"/>
      </g>
     </g>
     <g id="text_3">
      <!-- 40 -->
      <g transform="translate(161.843091 319.038437)scale(0.1 -0.1)">
       <defs>
        <path d="M 2419 4116 
L 825 1625 
L 2419 1625 
L 2419 4116 
z
M 2253 4666 
L 3047 4666 
L 3047 1625 
L 3713 1625 
L 3713 1100 
L 3047 1100 
L 3047 0 
L 2419 0 
L 2419 1100 
L 313 1100 
L 313 1709 
L 2253 4666 
z
" id="DejaVuSans-34" transform="scale(0.015625)"/>
       </defs>
       <use xlink:href="#DejaVuSans-34"/>
       <use x="63.623047" xlink:href="#DejaVuSans-30"/>
      </g>
     </g>
    </g>
    <g id="xtick_4">
     <g id="line2d_4">
      <g>
       <use style="stroke:#000000;stroke-width:0.8;" x="208.508386" xlink:href="#m22b9518693" y="304.44"/>
      </g>
     </g>
     <g id="text_4">
      <!-- 60 -->
      <g transform="translate(202.145886 319.038437)scale(0.1 -0.1)">
       <defs>
        <path d="M 2113 2584 
Q 1688 2584 1439 2293 
Q 1191 2003 1191 1497 
Q 1191 994 1439 701 
Q 1688 409 2113 409 
Q 2538 409 2786 701 
Q 3034 994 3034 1497 
Q 3034 2003 2786 2293 
Q 2538 2584 2113 2584 
z
M 3366 4563 
L 3366 3988 
Q 3128 4100 2886 4159 
Q 2644 4219 2406 4219 
Q 1781 4219 1451 3797 
Q 1122 3375 1075 2522 
Q 1259 2794 1537 2939 
Q 1816 3084 2150 3084 
Q 2853 3084 3261 2657 
Q 3669 2231 3669 1497 
Q 3669 778 3244 343 
Q 2819 -91 2113 -91 
Q 1303 -91 875 529 
Q 447 1150 447 2328 
Q 447 3434 972 4092 
Q 1497 4750 2381 4750 
Q 2619 4750 2861 4703 
Q 3103 4656 3366 4563 
z
" id="DejaVuSans-36" transform="scale(0.015625)"/>
       </defs>
       <use xlink:href="#DejaVuSans-36"/>
       <use x="63.623047" xlink:href="#DejaVuSans-30"/>
      </g>
     </g>
    </g>
    <g id="text_5">
     <!-- BBOX -->
     <g transform="translate(144.473906 332.716563)scale(0.1 -0.1)">
      <defs>
       <path d="M 2456 2859 
Q 2741 2859 2887 2984 
Q 3034 3109 3034 3353 
Q 3034 3594 2887 3720 
Q 2741 3847 2456 3847 
L 1791 3847 
L 1791 2859 
L 2456 2859 
z
M 2497 819 
Q 2859 819 3042 972 
Q 3225 1125 3225 1434 
Q 3225 1738 3044 1889 
Q 2863 2041 2497 2041 
L 1791 2041 
L 1791 819 
L 2497 819 
z
M 3616 2497 
Q 4003 2384 4215 2081 
Q 4428 1778 4428 1338 
Q 4428 663 3972 331 
Q 3516 0 2584 0 
L 588 0 
L 588 4666 
L 2394 4666 
Q 3366 4666 3802 4372 
Q 4238 4078 4238 3431 
Q 4238 3091 4078 2852 
Q 3919 2613 3616 2497 
z
" id="DejaVuSans-Bold-42" transform="scale(0.015625)"/>
       <path d="M 2719 3878 
Q 2169 3878 1866 3472 
Q 1563 3066 1563 2328 
Q 1563 1594 1866 1187 
Q 2169 781 2719 781 
Q 3272 781 3575 1187 
Q 3878 1594 3878 2328 
Q 3878 3066 3575 3472 
Q 3272 3878 2719 3878 
z
M 2719 4750 
Q 3844 4750 4481 4106 
Q 5119 3463 5119 2328 
Q 5119 1197 4481 553 
Q 3844 -91 2719 -91 
Q 1597 -91 958 553 
Q 319 1197 319 2328 
Q 319 3463 958 4106 
Q 1597 4750 2719 4750 
z
" id="DejaVuSans-Bold-4f" transform="scale(0.015625)"/>
       <path d="M 3188 2381 
L 4806 0 
L 3553 0 
L 2463 1594 
L 1381 0 
L 122 0 
L 1741 2381 
L 184 4666 
L 1441 4666 
L 2463 3163 
L 3481 4666 
L 4744 4666 
L 3188 2381 
z
" id="DejaVuSans-Bold-58" transform="scale(0.015625)"/>
      </defs>
      <use xlink:href="#DejaVuSans-Bold-42"/>
      <use x="76.220703" xlink:href="#DejaVuSans-Bold-42"/>
      <use x="152.441406" xlink:href="#DejaVuSans-Bold-4f"/>
      <use x="233.826172" xlink:href="#DejaVuSans-Bold-58"/>
     </g>
    </g>
   </g>
   <g id="matplotlib.axis_2">
    <g id="ytick_1">
     <g id="line2d_5">
      <defs>
       <path d="M 0 0 
L -3.5 0 
" id="mb8d7f81ba0" style="stroke:#000000;stroke-width:0.8;"/>
      </defs>
      <g>
       <use style="stroke:#000000;stroke-width:0.8;" x="87.6" xlink:href="#mb8d7f81ba0" y="278.889421"/>
      </g>
     </g>
     <g id="text_6">
      <!-- AP-Cup -->
      <g transform="translate(44.678125 282.68864)scale(0.1 -0.1)">
       <defs>
        <path d="M 2188 4044 
L 1331 1722 
L 3047 1722 
L 2188 4044 
z
M 1831 4666 
L 2547 4666 
L 4325 0 
L 3669 0 
L 3244 1197 
L 1141 1197 
L 716 0 
L 50 0 
L 1831 4666 
z
" id="DejaVuSans-41" transform="scale(0.015625)"/>
        <path d="M 1259 4147 
L 1259 2394 
L 2053 2394 
Q 2494 2394 2734 2622 
Q 2975 2850 2975 3272 
Q 2975 3691 2734 3919 
Q 2494 4147 2053 4147 
L 1259 4147 
z
M 628 4666 
L 2053 4666 
Q 2838 4666 3239 4311 
Q 3641 3956 3641 3272 
Q 3641 2581 3239 2228 
Q 2838 1875 2053 1875 
L 1259 1875 
L 1259 0 
L 628 0 
L 628 4666 
z
" id="DejaVuSans-50" transform="scale(0.015625)"/>
        <path d="M 313 2009 
L 1997 2009 
L 1997 1497 
L 313 1497 
L 313 2009 
z
" id="DejaVuSans-2d" transform="scale(0.015625)"/>
        <path d="M 4122 4306 
L 4122 3641 
Q 3803 3938 3442 4084 
Q 3081 4231 2675 4231 
Q 1875 4231 1450 3742 
Q 1025 3253 1025 2328 
Q 1025 1406 1450 917 
Q 1875 428 2675 428 
Q 3081 428 3442 575 
Q 3803 722 4122 1019 
L 4122 359 
Q 3791 134 3420 21 
Q 3050 -91 2638 -91 
Q 1578 -91 968 557 
Q 359 1206 359 2328 
Q 359 3453 968 4101 
Q 1578 4750 2638 4750 
Q 3056 4750 3426 4639 
Q 3797 4528 4122 4306 
z
" id="DejaVuSans-43" transform="scale(0.015625)"/>
        <path d="M 544 1381 
L 544 3500 
L 1119 3500 
L 1119 1403 
Q 1119 906 1312 657 
Q 1506 409 1894 409 
Q 2359 409 2629 706 
Q 2900 1003 2900 1516 
L 2900 3500 
L 3475 3500 
L 3475 0 
L 2900 0 
L 2900 538 
Q 2691 219 2414 64 
Q 2138 -91 1772 -91 
Q 1169 -91 856 284 
Q 544 659 544 1381 
z
M 1991 3584 
L 1991 3584 
z
" id="DejaVuSans-75" transform="scale(0.015625)"/>
        <path d="M 1159 525 
L 1159 -1331 
L 581 -1331 
L 581 3500 
L 1159 3500 
L 1159 2969 
Q 1341 3281 1617 3432 
Q 1894 3584 2278 3584 
Q 2916 3584 3314 3078 
Q 3713 2572 3713 1747 
Q 3713 922 3314 415 
Q 2916 -91 2278 -91 
Q 1894 -91 1617 61 
Q 1341 213 1159 525 
z
M 3116 1747 
Q 3116 2381 2855 2742 
Q 2594 3103 2138 3103 
Q 1681 3103 1420 2742 
Q 1159 2381 1159 1747 
Q 1159 1113 1420 752 
Q 1681 391 2138 391 
Q 2594 391 2855 752 
Q 3116 1113 3116 1747 
z
" id="DejaVuSans-70" transform="scale(0.015625)"/>
       </defs>
       <use xlink:href="#DejaVuSans-41"/>
       <use x="68.408203" xlink:href="#DejaVuSans-50"/>
       <use x="126.460938" xlink:href="#DejaVuSans-2d"/>
       <use x="162.544922" xlink:href="#DejaVuSans-43"/>
       <use x="232.369141" xlink:href="#DejaVuSans-75"/>
       <use x="295.748047" xlink:href="#DejaVuSans-70"/>
      </g>
     </g>
    </g>
    <g id="ytick_2">
     <g id="line2d_6">
      <g>
       <use style="stroke:#000000;stroke-width:0.8;" x="87.6" xlink:href="#mb8d7f81ba0" y="254.555537"/>
      </g>
     </g>
     <g id="text_7">
      <!-- AP-Couch -->
      <g transform="translate(33.071875 258.354756)scale(0.1 -0.1)">
       <defs>
        <path d="M 1959 3097 
Q 1497 3097 1228 2736 
Q 959 2375 959 1747 
Q 959 1119 1226 758 
Q 1494 397 1959 397 
Q 2419 397 2687 759 
Q 2956 1122 2956 1747 
Q 2956 2369 2687 2733 
Q 2419 3097 1959 3097 
z
M 1959 3584 
Q 2709 3584 3137 3096 
Q 3566 2609 3566 1747 
Q 3566 888 3137 398 
Q 2709 -91 1959 -91 
Q 1206 -91 779 398 
Q 353 888 353 1747 
Q 353 2609 779 3096 
Q 1206 3584 1959 3584 
z
" id="DejaVuSans-6f" transform="scale(0.015625)"/>
        <path d="M 3122 3366 
L 3122 2828 
Q 2878 2963 2633 3030 
Q 2388 3097 2138 3097 
Q 1578 3097 1268 2742 
Q 959 2388 959 1747 
Q 959 1106 1268 751 
Q 1578 397 2138 397 
Q 2388 397 2633 464 
Q 2878 531 3122 666 
L 3122 134 
Q 2881 22 2623 -34 
Q 2366 -91 2075 -91 
Q 1284 -91 818 406 
Q 353 903 353 1747 
Q 353 2603 823 3093 
Q 1294 3584 2113 3584 
Q 2378 3584 2631 3529 
Q 2884 3475 3122 3366 
z
" id="DejaVuSans-63" transform="scale(0.015625)"/>
        <path d="M 3513 2113 
L 3513 0 
L 2938 0 
L 2938 2094 
Q 2938 2591 2744 2837 
Q 2550 3084 2163 3084 
Q 1697 3084 1428 2787 
Q 1159 2491 1159 1978 
L 1159 0 
L 581 0 
L 581 4863 
L 1159 4863 
L 1159 2956 
Q 1366 3272 1645 3428 
Q 1925 3584 2291 3584 
Q 2894 3584 3203 3211 
Q 3513 2838 3513 2113 
z
" id="DejaVuSans-68" transform="scale(0.015625)"/>
       </defs>
       <use xlink:href="#DejaVuSans-41"/>
       <use x="68.408203" xlink:href="#DejaVuSans-50"/>
       <use x="126.460938" xlink:href="#DejaVuSans-2d"/>
       <use x="162.544922" xlink:href="#DejaVuSans-43"/>
       <use x="232.369141" xlink:href="#DejaVuSans-6f"/>
       <use x="293.550781" xlink:href="#DejaVuSans-75"/>
       <use x="356.929688" xlink:href="#DejaVuSans-63"/>
       <use x="411.910156" xlink:href="#DejaVuSans-68"/>
      </g>
     </g>
    </g>
    <g id="ytick_3">
     <g id="line2d_7">
      <g>
       <use style="stroke:#000000;stroke-width:0.8;" x="87.6" xlink:href="#mb8d7f81ba0" y="230.221653"/>
      </g>
     </g>
     <g id="text_8">
      <!-- AP-Plant -->
      <g transform="translate(39.153125 234.020872)scale(0.1 -0.1)">
       <defs>
        <path d="M 603 4863 
L 1178 4863 
L 1178 0 
L 603 0 
L 603 4863 
z
" id="DejaVuSans-6c" transform="scale(0.015625)"/>
        <path d="M 2194 1759 
Q 1497 1759 1228 1600 
Q 959 1441 959 1056 
Q 959 750 1161 570 
Q 1363 391 1709 391 
Q 2188 391 2477 730 
Q 2766 1069 2766 1631 
L 2766 1759 
L 2194 1759 
z
M 3341 1997 
L 3341 0 
L 2766 0 
L 2766 531 
Q 2569 213 2275 61 
Q 1981 -91 1556 -91 
Q 1019 -91 701 211 
Q 384 513 384 1019 
Q 384 1609 779 1909 
Q 1175 2209 1959 2209 
L 2766 2209 
L 2766 2266 
Q 2766 2663 2505 2880 
Q 2244 3097 1772 3097 
Q 1472 3097 1187 3025 
Q 903 2953 641 2809 
L 641 3341 
Q 956 3463 1253 3523 
Q 1550 3584 1831 3584 
Q 2591 3584 2966 3190 
Q 3341 2797 3341 1997 
z
" id="DejaVuSans-61" transform="scale(0.015625)"/>
        <path d="M 3513 2113 
L 3513 0 
L 2938 0 
L 2938 2094 
Q 2938 2591 2744 2837 
Q 2550 3084 2163 3084 
Q 1697 3084 1428 2787 
Q 1159 2491 1159 1978 
L 1159 0 
L 581 0 
L 581 3500 
L 1159 3500 
L 1159 2956 
Q 1366 3272 1645 3428 
Q 1925 3584 2291 3584 
Q 2894 3584 3203 3211 
Q 3513 2838 3513 2113 
z
" id="DejaVuSans-6e" transform="scale(0.015625)"/>
        <path d="M 1172 4494 
L 1172 3500 
L 2356 3500 
L 2356 3053 
L 1172 3053 
L 1172 1153 
Q 1172 725 1289 603 
Q 1406 481 1766 481 
L 2356 481 
L 2356 0 
L 1766 0 
Q 1100 0 847 248 
Q 594 497 594 1153 
L 594 3053 
L 172 3053 
L 172 3500 
L 594 3500 
L 594 4494 
L 1172 4494 
z
" id="DejaVuSans-74" transform="scale(0.015625)"/>
       </defs>
       <use xlink:href="#DejaVuSans-41"/>
       <use x="68.408203" xlink:href="#DejaVuSans-50"/>
       <use x="126.460938" xlink:href="#DejaVuSans-2d"/>
       <use x="162.544922" xlink:href="#DejaVuSans-50"/>
       <use x="222.847656" xlink:href="#DejaVuSans-6c"/>
       <use x="250.630859" xlink:href="#DejaVuSans-61"/>
       <use x="311.910156" xlink:href="#DejaVuSans-6e"/>
       <use x="375.289062" xlink:href="#DejaVuSans-74"/>
      </g>
     </g>
    </g>
    <g id="ytick_4">
     <g id="line2d_8">
      <g>
       <use style="stroke:#000000;stroke-width:0.8;" x="87.6" xlink:href="#mb8d7f81ba0" y="205.887769"/>
      </g>
     </g>
     <g id="text_9">
      <!-- AP-Painting -->
      <g transform="translate(24.139063 209.686987)scale(0.1 -0.1)">
       <defs>
        <path d="M 603 3500 
L 1178 3500 
L 1178 0 
L 603 0 
L 603 3500 
z
M 603 4863 
L 1178 4863 
L 1178 4134 
L 603 4134 
L 603 4863 
z
" id="DejaVuSans-69" transform="scale(0.015625)"/>
        <path d="M 2906 1791 
Q 2906 2416 2648 2759 
Q 2391 3103 1925 3103 
Q 1463 3103 1205 2759 
Q 947 2416 947 1791 
Q 947 1169 1205 825 
Q 1463 481 1925 481 
Q 2391 481 2648 825 
Q 2906 1169 2906 1791 
z
M 3481 434 
Q 3481 -459 3084 -895 
Q 2688 -1331 1869 -1331 
Q 1566 -1331 1297 -1286 
Q 1028 -1241 775 -1147 
L 775 -588 
Q 1028 -725 1275 -790 
Q 1522 -856 1778 -856 
Q 2344 -856 2625 -561 
Q 2906 -266 2906 331 
L 2906 616 
Q 2728 306 2450 153 
Q 2172 0 1784 0 
Q 1141 0 747 490 
Q 353 981 353 1791 
Q 353 2603 747 3093 
Q 1141 3584 1784 3584 
Q 2172 3584 2450 3431 
Q 2728 3278 2906 2969 
L 2906 3500 
L 3481 3500 
L 3481 434 
z
" id="DejaVuSans-67" transform="scale(0.015625)"/>
       </defs>
       <use xlink:href="#DejaVuSans-41"/>
       <use x="68.408203" xlink:href="#DejaVuSans-50"/>
       <use x="126.460938" xlink:href="#DejaVuSans-2d"/>
       <use x="162.544922" xlink:href="#DejaVuSans-50"/>
       <use x="218.347656" xlink:href="#DejaVuSans-61"/>
       <use x="279.626953" xlink:href="#DejaVuSans-69"/>
       <use x="307.410156" xlink:href="#DejaVuSans-6e"/>
       <use x="370.789062" xlink:href="#DejaVuSans-74"/>
       <use x="409.998047" xlink:href="#DejaVuSans-69"/>
       <use x="437.78125" xlink:href="#DejaVuSans-6e"/>
       <use x="501.160156" xlink:href="#DejaVuSans-67"/>
      </g>
     </g>
    </g>
    <g id="ytick_5">
     <g id="line2d_9">
      <g>
       <use style="stroke:#000000;stroke-width:0.8;" x="87.6" xlink:href="#mb8d7f81ba0" y="181.553884"/>
      </g>
     </g>
     <g id="text_10">
      <!-- AP-Chair -->
      <g transform="translate(38.009375 185.353103)scale(0.1 -0.1)">
       <defs>
        <path d="M 2631 2963 
Q 2534 3019 2420 3045 
Q 2306 3072 2169 3072 
Q 1681 3072 1420 2755 
Q 1159 2438 1159 1844 
L 1159 0 
L 581 0 
L 581 3500 
L 1159 3500 
L 1159 2956 
Q 1341 3275 1631 3429 
Q 1922 3584 2338 3584 
Q 2397 3584 2469 3576 
Q 2541 3569 2628 3553 
L 2631 2963 
z
" id="DejaVuSans-72" transform="scale(0.015625)"/>
       </defs>
       <use xlink:href="#DejaVuSans-41"/>
       <use x="68.408203" xlink:href="#DejaVuSans-50"/>
       <use x="126.460938" xlink:href="#DejaVuSans-2d"/>
       <use x="162.544922" xlink:href="#DejaVuSans-43"/>
       <use x="232.369141" xlink:href="#DejaVuSans-68"/>
       <use x="295.748047" xlink:href="#DejaVuSans-61"/>
       <use x="357.027344" xlink:href="#DejaVuSans-69"/>
       <use x="384.810547" xlink:href="#DejaVuSans-72"/>
      </g>
     </g>
    </g>
    <g id="ytick_6">
     <g id="line2d_10">
      <g>
       <use style="stroke:#000000;stroke-width:0.8;" x="87.6" xlink:href="#mb8d7f81ba0" y="157.22"/>
      </g>
     </g>
     <g id="text_11">
      <!-- APl -->
      <g transform="translate(64.951563 161.019219)scale(0.1 -0.1)">
       <use xlink:href="#DejaVuSans-41"/>
       <use x="68.408203" xlink:href="#DejaVuSans-50"/>
       <use x="128.710938" xlink:href="#DejaVuSans-6c"/>
      </g>
     </g>
    </g>
    <g id="ytick_7">
     <g id="line2d_11">
      <g>
       <use style="stroke:#000000;stroke-width:0.8;" x="87.6" xlink:href="#mb8d7f81ba0" y="132.886116"/>
      </g>
     </g>
     <g id="text_12">
      <!-- APm -->
      <g transform="translate(57.989063 136.685334)scale(0.1 -0.1)">
       <defs>
        <path d="M 3328 2828 
Q 3544 3216 3844 3400 
Q 4144 3584 4550 3584 
Q 5097 3584 5394 3201 
Q 5691 2819 5691 2113 
L 5691 0 
L 5113 0 
L 5113 2094 
Q 5113 2597 4934 2840 
Q 4756 3084 4391 3084 
Q 3944 3084 3684 2787 
Q 3425 2491 3425 1978 
L 3425 0 
L 2847 0 
L 2847 2094 
Q 2847 2600 2669 2842 
Q 2491 3084 2119 3084 
Q 1678 3084 1418 2786 
Q 1159 2488 1159 1978 
L 1159 0 
L 581 0 
L 581 3500 
L 1159 3500 
L 1159 2956 
Q 1356 3278 1631 3431 
Q 1906 3584 2284 3584 
Q 2666 3584 2933 3390 
Q 3200 3197 3328 2828 
z
" id="DejaVuSans-6d" transform="scale(0.015625)"/>
       </defs>
       <use xlink:href="#DejaVuSans-41"/>
       <use x="68.408203" xlink:href="#DejaVuSans-50"/>
       <use x="128.710938" xlink:href="#DejaVuSans-6d"/>
      </g>
     </g>
    </g>
    <g id="ytick_8">
     <g id="line2d_12">
      <g>
       <use style="stroke:#000000;stroke-width:0.8;" x="87.6" xlink:href="#mb8d7f81ba0" y="108.552231"/>
      </g>
     </g>
     <g id="text_13">
      <!-- APs -->
      <g transform="translate(62.695313 112.35145)scale(0.1 -0.1)">
       <defs>
        <path d="M 2834 3397 
L 2834 2853 
Q 2591 2978 2328 3040 
Q 2066 3103 1784 3103 
Q 1356 3103 1142 2972 
Q 928 2841 928 2578 
Q 928 2378 1081 2264 
Q 1234 2150 1697 2047 
L 1894 2003 
Q 2506 1872 2764 1633 
Q 3022 1394 3022 966 
Q 3022 478 2636 193 
Q 2250 -91 1575 -91 
Q 1294 -91 989 -36 
Q 684 19 347 128 
L 347 722 
Q 666 556 975 473 
Q 1284 391 1588 391 
Q 1994 391 2212 530 
Q 2431 669 2431 922 
Q 2431 1156 2273 1281 
Q 2116 1406 1581 1522 
L 1381 1569 
Q 847 1681 609 1914 
Q 372 2147 372 2553 
Q 372 3047 722 3315 
Q 1072 3584 1716 3584 
Q 2034 3584 2315 3537 
Q 2597 3491 2834 3397 
z
" id="DejaVuSans-73" transform="scale(0.015625)"/>
       </defs>
       <use xlink:href="#DejaVuSans-41"/>
       <use x="68.408203" xlink:href="#DejaVuSans-50"/>
       <use x="126.960938" xlink:href="#DejaVuSans-73"/>
      </g>
     </g>
    </g>
    <g id="ytick_9">
     <g id="line2d_13">
      <g>
       <use style="stroke:#000000;stroke-width:0.8;" x="87.6" xlink:href="#mb8d7f81ba0" y="84.218347"/>
      </g>
     </g>
     <g id="text_14">
      <!-- AP75 -->
      <g transform="translate(55.004688 88.017566)scale(0.1 -0.1)">
       <defs>
        <path d="M 525 4666 
L 3525 4666 
L 3525 4397 
L 1831 0 
L 1172 0 
L 2766 4134 
L 525 4134 
L 525 4666 
z
" id="DejaVuSans-37" transform="scale(0.015625)"/>
        <path d="M 691 4666 
L 3169 4666 
L 3169 4134 
L 1269 4134 
L 1269 2991 
Q 1406 3038 1543 3061 
Q 1681 3084 1819 3084 
Q 2600 3084 3056 2656 
Q 3513 2228 3513 1497 
Q 3513 744 3044 326 
Q 2575 -91 1722 -91 
Q 1428 -91 1123 -41 
Q 819 9 494 109 
L 494 744 
Q 775 591 1075 516 
Q 1375 441 1709 441 
Q 2250 441 2565 725 
Q 2881 1009 2881 1497 
Q 2881 1984 2565 2268 
Q 2250 2553 1709 2553 
Q 1456 2553 1204 2497 
Q 953 2441 691 2322 
L 691 4666 
z
" id="DejaVuSans-35" transform="scale(0.015625)"/>
       </defs>
       <use xlink:href="#DejaVuSans-41"/>
       <use x="68.408203" xlink:href="#DejaVuSans-50"/>
       <use x="128.710938" xlink:href="#DejaVuSans-37"/>
       <use x="192.333984" xlink:href="#DejaVuSans-35"/>
      </g>
     </g>
    </g>
    <g id="ytick_10">
     <g id="line2d_14">
      <g>
       <use style="stroke:#000000;stroke-width:0.8;" x="87.6" xlink:href="#mb8d7f81ba0" y="59.884463"/>
      </g>
     </g>
     <g id="text_15">
      <!-- AP50 -->
      <g transform="translate(55.004688 63.683682)scale(0.1 -0.1)">
       <use xlink:href="#DejaVuSans-41"/>
       <use x="68.408203" xlink:href="#DejaVuSans-50"/>
       <use x="128.710938" xlink:href="#DejaVuSans-35"/>
       <use x="192.333984" xlink:href="#DejaVuSans-30"/>
      </g>
     </g>
    </g>
    <g id="ytick_11">
     <g id="line2d_15">
      <g>
       <use style="stroke:#000000;stroke-width:0.8;" x="87.6" xlink:href="#mb8d7f81ba0" y="35.550579"/>
      </g>
     </g>
     <g id="text_16">
      <!-- AP -->
      <g transform="translate(67.729688 39.349797)scale(0.1 -0.1)">
       <use xlink:href="#DejaVuSans-41"/>
       <use x="68.408203" xlink:href="#DejaVuSans-50"/>
      </g>
     </g>
    </g>
    <g id="text_17">
     <!-- Metric -->
     <g transform="translate(18.059375 175.120781)rotate(-90)scale(0.1 -0.1)">
      <defs>
       <path d="M 588 4666 
L 2119 4666 
L 3181 2169 
L 4250 4666 
L 5778 4666 
L 5778 0 
L 4641 0 
L 4641 3413 
L 3566 897 
L 2803 897 
L 1728 3413 
L 1728 0 
L 588 0 
L 588 4666 
z
" id="DejaVuSans-Bold-4d" transform="scale(0.015625)"/>
       <path d="M 4031 1759 
L 4031 1441 
L 1416 1441 
Q 1456 1047 1700 850 
Q 1944 653 2381 653 
Q 2734 653 3104 758 
Q 3475 863 3866 1075 
L 3866 213 
Q 3469 63 3072 -14 
Q 2675 -91 2278 -91 
Q 1328 -91 801 392 
Q 275 875 275 1747 
Q 275 2603 792 3093 
Q 1309 3584 2216 3584 
Q 3041 3584 3536 3087 
Q 4031 2591 4031 1759 
z
M 2881 2131 
Q 2881 2450 2695 2645 
Q 2509 2841 2209 2841 
Q 1884 2841 1681 2658 
Q 1478 2475 1428 2131 
L 2881 2131 
z
" id="DejaVuSans-Bold-65" transform="scale(0.015625)"/>
       <path d="M 1759 4494 
L 1759 3500 
L 2913 3500 
L 2913 2700 
L 1759 2700 
L 1759 1216 
Q 1759 972 1856 886 
Q 1953 800 2241 800 
L 2816 800 
L 2816 0 
L 1856 0 
Q 1194 0 917 276 
Q 641 553 641 1216 
L 641 2700 
L 84 2700 
L 84 3500 
L 641 3500 
L 641 4494 
L 1759 4494 
z
" id="DejaVuSans-Bold-74" transform="scale(0.015625)"/>
       <path d="M 3138 2547 
Q 2991 2616 2845 2648 
Q 2700 2681 2553 2681 
Q 2122 2681 1889 2404 
Q 1656 2128 1656 1613 
L 1656 0 
L 538 0 
L 538 3500 
L 1656 3500 
L 1656 2925 
Q 1872 3269 2151 3426 
Q 2431 3584 2822 3584 
Q 2878 3584 2943 3579 
Q 3009 3575 3134 3559 
L 3138 2547 
z
" id="DejaVuSans-Bold-72" transform="scale(0.015625)"/>
       <path d="M 538 3500 
L 1656 3500 
L 1656 0 
L 538 0 
L 538 3500 
z
M 538 4863 
L 1656 4863 
L 1656 3950 
L 538 3950 
L 538 4863 
z
" id="DejaVuSans-Bold-69" transform="scale(0.015625)"/>
       <path d="M 3366 3391 
L 3366 2478 
Q 3138 2634 2908 2709 
Q 2678 2784 2431 2784 
Q 1963 2784 1702 2511 
Q 1441 2238 1441 1747 
Q 1441 1256 1702 982 
Q 1963 709 2431 709 
Q 2694 709 2930 787 
Q 3166 866 3366 1019 
L 3366 103 
Q 3103 6 2833 -42 
Q 2563 -91 2291 -91 
Q 1344 -91 809 395 
Q 275 881 275 1747 
Q 275 2613 809 3098 
Q 1344 3584 2291 3584 
Q 2566 3584 2833 3536 
Q 3100 3488 3366 3391 
z
" id="DejaVuSans-Bold-63" transform="scale(0.015625)"/>
      </defs>
      <use xlink:href="#DejaVuSans-Bold-4d"/>
      <use x="99.511719" xlink:href="#DejaVuSans-Bold-65"/>
      <use x="167.333984" xlink:href="#DejaVuSans-Bold-74"/>
      <use x="215.136719" xlink:href="#DejaVuSans-Bold-72"/>
      <use x="264.453125" xlink:href="#DejaVuSans-Bold-69"/>
      <use x="298.730469" xlink:href="#DejaVuSans-Bold-63"/>
     </g>
    </g>
   </g>
   <g id="patch_47">
    <path d="M 87.6 304.44 
L 87.6 10 
" style="fill:none;stroke:#000000;stroke-linecap:square;stroke-linejoin:miter;stroke-width:0.8;"/>
   </g>
   <g id="patch_48">
    <path d="M 232.44 304.44 
L 232.44 10 
" style="fill:none;stroke:#000000;stroke-linecap:square;stroke-linejoin:miter;stroke-width:0.8;"/>
   </g>
   <g id="patch_49">
    <path d="M 87.6 304.44 
L 232.44 304.44 
" style="fill:none;stroke:#000000;stroke-linecap:square;stroke-linejoin:miter;stroke-width:0.8;"/>
   </g>
   <g id="patch_50">
    <path d="M 87.6 10 
L 232.44 10 
" style="fill:none;stroke:#000000;stroke-linecap:square;stroke-linejoin:miter;stroke-width:0.8;"/>
   </g>
  </g>
  <g id="axes_2">
   <g id="patch_51">
    <path d="M 305.96 304.44 
L 450.8 304.44 
L 450.8 10 
L 305.96 10 
z
" style="fill:#ffffff;"/>
   </g>
   <g id="patch_52">
    <path clip-path="url(#p75f6ba31bc)" d="M 305.96 291.056364 
L 359.520538 291.056364 
L 359.520538 284.972893 
L 305.96 284.972893 
z
" style="fill:#1f77b4;"/>
   </g>
   <g id="patch_53">
    <path clip-path="url(#p75f6ba31bc)" d="M 305.96 266.722479 
L 402.750045 266.722479 
L 402.750045 260.639008 
L 305.96 260.639008 
z
" style="fill:#1f77b4;"/>
   </g>
   <g id="patch_54">
    <path clip-path="url(#p75f6ba31bc)" d="M 305.96 242.388595 
L 410.818088 242.388595 
L 410.818088 236.305124 
L 305.96 236.305124 
z
" style="fill:#1f77b4;"/>
   </g>
   <g id="patch_55">
    <path clip-path="url(#p75f6ba31bc)" d="M 305.96 218.054711 
L 440.929764 218.054711 
L 440.929764 211.97124 
L 305.96 211.97124 
z
" style="fill:#1f77b4;"/>
   </g>
   <g id="patch_56">
    <path clip-path="url(#p75f6ba31bc)" d="M 305.96 193.720826 
L 402.543774 193.720826 
L 402.543774 187.637355 
L 305.96 187.637355 
z
" style="fill:#1f77b4;"/>
   </g>
   <g id="patch_57">
    <path clip-path="url(#p75f6ba31bc)" d="M 305.96 169.386942 
L 431.731877 169.386942 
L 431.731877 163.303471 
L 305.96 163.303471 
z
" style="fill:#1f77b4;"/>
   </g>
   <g id="patch_58">
    <path clip-path="url(#p75f6ba31bc)" d="M 305.96 145.053058 
L 411.709198 145.053058 
L 411.709198 138.969587 
L 305.96 138.969587 
z
" style="fill:#1f77b4;"/>
   </g>
   <g id="patch_59">
    <path clip-path="url(#p75f6ba31bc)" d="M 305.96 120.719174 
L 337.739718 120.719174 
L 337.739718 114.635702 
L 305.96 114.635702 
z
" style="fill:#1f77b4;"/>
   </g>
   <g id="patch_60">
    <path clip-path="url(#p75f6ba31bc)" d="M 305.96 96.385289 
L 422.709386 96.385289 
L 422.709386 90.301818 
L 305.96 90.301818 
z
" style="fill:#1f77b4;"/>
   </g>
   <g id="patch_61">
    <path clip-path="url(#p75f6ba31bc)" d="M 305.96 72.051405 
L 443.902857 72.051405 
L 443.902857 65.967934 
L 305.96 65.967934 
z
" style="fill:#1f77b4;"/>
   </g>
   <g id="patch_62">
    <path clip-path="url(#p75f6ba31bc)" d="M 305.96 47.717521 
L 403.312441 47.717521 
L 403.312441 41.63405 
L 305.96 41.63405 
z
" style="fill:#1f77b4;"/>
   </g>
   <g id="patch_63">
    <path clip-path="url(#p75f6ba31bc)" d="M 305.96 284.972893 
L 340.193994 284.972893 
L 340.193994 278.889421 
L 305.96 278.889421 
z
" style="fill:#ff7f0e;"/>
   </g>
   <g id="patch_64">
    <path clip-path="url(#p75f6ba31bc)" d="M 305.96 260.639008 
L 383.993368 260.639008 
L 383.993368 254.555537 
L 305.96 254.555537 
z
" style="fill:#ff7f0e;"/>
   </g>
   <g id="patch_65">
    <path clip-path="url(#p75f6ba31bc)" d="M 305.96 236.305124 
L 337.663534 236.305124 
L 337.663534 230.221653 
L 305.96 230.221653 
z
" style="fill:#ff7f0e;"/>
   </g>
   <g id="patch_66">
    <path clip-path="url(#p75f6ba31bc)" d="M 305.96 211.97124 
L 340.957957 211.97124 
L 340.957957 205.887769 
L 305.96 205.887769 
z
" style="fill:#ff7f0e;"/>
   </g>
   <g id="patch_67">
    <path clip-path="url(#p75f6ba31bc)" d="M 305.96 187.637355 
L 388.792374 187.637355 
L 388.792374 181.553884 
L 305.96 181.553884 
z
" style="fill:#ff7f0e;"/>
   </g>
   <g id="patch_68">
    <path clip-path="url(#p75f6ba31bc)" d="M 305.96 163.303471 
L 381.909577 163.303471 
L 381.909577 157.22 
L 305.96 157.22 
z
" style="fill:#ff7f0e;"/>
   </g>
   <g id="patch_69">
    <path clip-path="url(#p75f6ba31bc)" d="M 305.96 138.969587 
L 345.992356 138.969587 
L 345.992356 132.886116 
L 305.96 132.886116 
z
" style="fill:#ff7f0e;"/>
   </g>
   <g id="patch_70">
    <path clip-path="url(#p75f6ba31bc)" d="M 305.96 114.635702 
L 309.49108 114.635702 
L 309.49108 108.552231 
L 305.96 108.552231 
z
" style="fill:#ff7f0e;"/>
   </g>
   <g id="patch_71">
    <path clip-path="url(#p75f6ba31bc)" d="M 305.96 90.301818 
L 352.652778 90.301818 
L 352.652778 84.218347 
L 305.96 84.218347 
z
" style="fill:#ff7f0e;"/>
   </g>
   <g id="patch_72">
    <path clip-path="url(#p75f6ba31bc)" d="M 305.96 65.967934 
L 400.130868 65.967934 
L 400.130868 59.884463 
L 305.96 59.884463 
z
" style="fill:#ff7f0e;"/>
   </g>
   <g id="patch_73">
    <path clip-path="url(#p75f6ba31bc)" d="M 305.96 41.63405 
L 358.320245 41.63405 
L 358.320245 35.550579 
L 305.96 35.550579 
z
" style="fill:#ff7f0e;"/>
   </g>
   <g id="patch_74">
    <path clip-path="url(#p75f6ba31bc)" d="M 305.96 278.889421 
L 334.768018 278.889421 
L 334.768018 272.80595 
L 305.96 272.80595 
z
" style="fill:#2ca02c;"/>
   </g>
   <g id="patch_75">
    <path clip-path="url(#p75f6ba31bc)" d="M 305.96 254.555537 
L 366.37293 254.555537 
L 366.37293 248.472066 
L 305.96 248.472066 
z
" style="fill:#2ca02c;"/>
   </g>
   <g id="patch_76">
    <path clip-path="url(#p75f6ba31bc)" d="M 305.96 230.221653 
L 359.020439 230.221653 
L 359.020439 224.138182 
L 305.96 224.138182 
z
" style="fill:#2ca02c;"/>
   </g>
   <g id="patch_77">
    <path clip-path="url(#p75f6ba31bc)" d="M 305.96 205.887769 
L 362.813881 205.887769 
L 362.813881 199.804298 
L 305.96 199.804298 
z
" style="fill:#2ca02c;"/>
   </g>
   <g id="patch_78">
    <path clip-path="url(#p75f6ba31bc)" d="M 305.96 181.553884 
L 398.441078 181.553884 
L 398.441078 175.470413 
L 305.96 175.470413 
z
" style="fill:#2ca02c;"/>
   </g>
   <g id="patch_79">
    <path clip-path="url(#p75f6ba31bc)" d="M 305.96 157.22 
L 384.623211 157.22 
L 384.623211 151.136529 
L 305.96 151.136529 
z
" style="fill:#2ca02c;"/>
   </g>
   <g id="patch_80">
    <path clip-path="url(#p75f6ba31bc)" d="M 305.96 132.886116 
L 375.81245 132.886116 
L 375.81245 126.802645 
L 305.96 126.802645 
z
" style="fill:#2ca02c;"/>
   </g>
   <g id="patch_81">
    <path clip-path="url(#p75f6ba31bc)" d="M 305.96 108.552231 
L 327.146479 108.552231 
L 327.146479 102.46876 
L 305.96 102.46876 
z
" style="fill:#2ca02c;"/>
   </g>
   <g id="patch_82">
    <path clip-path="url(#p75f6ba31bc)" d="M 305.96 84.218347 
L 356.368855 84.218347 
L 356.368855 78.134876 
L 305.96 78.134876 
z
" style="fill:#2ca02c;"/>
   </g>
   <g id="patch_83">
    <path clip-path="url(#p75f6ba31bc)" d="M 305.96 59.884463 
L 407.625965 59.884463 
L 407.625965 53.800992 
L 305.96 53.800992 
z
" style="fill:#2ca02c;"/>
   </g>
   <g id="patch_84">
    <path clip-path="url(#p75f6ba31bc)" d="M 305.96 35.550579 
L 364.283269 35.550579 
L 364.283269 29.467107 
L 305.96 29.467107 
z
" style="fill:#2ca02c;"/>
   </g>
   <g id="patch_85">
    <path clip-path="url(#p75f6ba31bc)" d="M 305.96 272.80595 
L 327.356246 272.80595 
L 327.356246 266.722479 
L 305.96 266.722479 
z
" style="fill:#d62728;"/>
   </g>
   <g id="patch_86">
    <path clip-path="url(#p75f6ba31bc)" d="M 305.96 248.472066 
L 397.733114 248.472066 
L 397.733114 242.388595 
L 305.96 242.388595 
z
" style="fill:#d62728;"/>
   </g>
   <g id="patch_87">
    <path clip-path="url(#p75f6ba31bc)" d="M 305.96 224.138182 
L 352.259129 224.138182 
L 352.259129 218.054711 
L 305.96 218.054711 
z
" style="fill:#d62728;"/>
   </g>
   <g id="patch_88">
    <path clip-path="url(#p75f6ba31bc)" d="M 305.96 199.804298 
L 361.525948 199.804298 
L 361.525948 193.720826 
L 305.96 193.720826 
z
" style="fill:#d62728;"/>
   </g>
   <g id="patch_89">
    <path clip-path="url(#p75f6ba31bc)" d="M 305.96 175.470413 
L 358.794677 175.470413 
L 358.794677 169.386942 
L 305.96 169.386942 
z
" style="fill:#d62728;"/>
   </g>
   <g id="patch_90">
    <path clip-path="url(#p75f6ba31bc)" d="M 305.96 151.136529 
L 384.060668 151.136529 
L 384.060668 145.053058 
L 305.96 145.053058 
z
" style="fill:#d62728;"/>
   </g>
   <g id="patch_91">
    <path clip-path="url(#p75f6ba31bc)" d="M 305.96 126.802645 
L 352.388456 126.802645 
L 352.388456 120.719174 
L 305.96 120.719174 
z
" style="fill:#d62728;"/>
   </g>
   <g id="patch_92">
    <path clip-path="url(#p75f6ba31bc)" d="M 305.96 102.46876 
L 337.739718 102.46876 
L 337.739718 96.385289 
L 305.96 96.385289 
z
" style="fill:#d62728;"/>
   </g>
   <g id="patch_93">
    <path clip-path="url(#p75f6ba31bc)" d="M 305.96 78.134876 
L 360.0702 78.134876 
L 360.0702 72.051405 
L 305.96 72.051405 
z
" style="fill:#d62728;"/>
   </g>
   <g id="patch_94">
    <path clip-path="url(#p75f6ba31bc)" d="M 305.96 53.800992 
L 402.255495 53.800992 
L 402.255495 47.717521 
L 305.96 47.717521 
z
" style="fill:#d62728;"/>
   </g>
   <g id="patch_95">
    <path clip-path="url(#p75f6ba31bc)" d="M 305.96 29.467107 
L 359.533823 29.467107 
L 359.533823 23.383636 
L 305.96 23.383636 
z
" style="fill:#d62728;"/>
   </g>
   <g id="matplotlib.axis_3">
    <g id="xtick_5">
     <g id="line2d_16">
      <g>
       <use style="stroke:#000000;stroke-width:0.8;" x="305.96" xlink:href="#m22b9518693" y="304.44"/>
      </g>
     </g>
     <g id="text_18">
      <!-- 0 -->
      <g transform="translate(302.77875 319.038437)scale(0.1 -0.1)">
       <use xlink:href="#DejaVuSans-30"/>
      </g>
     </g>
    </g>
    <g id="xtick_6">
     <g id="line2d_17">
      <g>
       <use style="stroke:#000000;stroke-width:0.8;" x="348.332958" xlink:href="#m22b9518693" y="304.44"/>
      </g>
     </g>
     <g id="text_19">
      <!-- 20 -->
      <g transform="translate(341.970458 319.038437)scale(0.1 -0.1)">
       <use xlink:href="#DejaVuSans-32"/>
       <use x="63.623047" xlink:href="#DejaVuSans-30"/>
      </g>
     </g>
    </g>
    <g id="xtick_7">
     <g id="line2d_18">
      <g>
       <use style="stroke:#000000;stroke-width:0.8;" x="390.705916" xlink:href="#m22b9518693" y="304.44"/>
      </g>
     </g>
     <g id="text_20">
      <!-- 40 -->
      <g transform="translate(384.343416 319.038437)scale(0.1 -0.1)">
       <use xlink:href="#DejaVuSans-34"/>
       <use x="63.623047" xlink:href="#DejaVuSans-30"/>
      </g>
     </g>
    </g>
    <g id="xtick_8">
     <g id="line2d_19">
      <g>
       <use style="stroke:#000000;stroke-width:0.8;" x="433.078874" xlink:href="#m22b9518693" y="304.44"/>
      </g>
     </g>
     <g id="text_21">
      <!-- 60 -->
      <g transform="translate(426.716374 319.038437)scale(0.1 -0.1)">
       <use xlink:href="#DejaVuSans-36"/>
       <use x="63.623047" xlink:href="#DejaVuSans-30"/>
      </g>
     </g>
    </g>
    <g id="text_22">
     <!-- SEGM -->
     <g transform="translate(362.283906 332.716563)scale(0.1 -0.1)">
      <defs>
       <path d="M 3834 4519 
L 3834 3531 
Q 3450 3703 3084 3790 
Q 2719 3878 2394 3878 
Q 1963 3878 1756 3759 
Q 1550 3641 1550 3391 
Q 1550 3203 1689 3098 
Q 1828 2994 2194 2919 
L 2706 2816 
Q 3484 2659 3812 2340 
Q 4141 2022 4141 1434 
Q 4141 663 3683 286 
Q 3225 -91 2284 -91 
Q 1841 -91 1394 -6 
Q 947 78 500 244 
L 500 1259 
Q 947 1022 1364 901 
Q 1781 781 2169 781 
Q 2563 781 2772 912 
Q 2981 1044 2981 1288 
Q 2981 1506 2839 1625 
Q 2697 1744 2272 1838 
L 1806 1941 
Q 1106 2091 782 2419 
Q 459 2747 459 3303 
Q 459 4000 909 4375 
Q 1359 4750 2203 4750 
Q 2588 4750 2994 4692 
Q 3400 4634 3834 4519 
z
" id="DejaVuSans-Bold-53" transform="scale(0.015625)"/>
       <path d="M 588 4666 
L 3834 4666 
L 3834 3756 
L 1791 3756 
L 1791 2888 
L 3713 2888 
L 3713 1978 
L 1791 1978 
L 1791 909 
L 3903 909 
L 3903 0 
L 588 0 
L 588 4666 
z
" id="DejaVuSans-Bold-45" transform="scale(0.015625)"/>
       <path d="M 4781 347 
Q 4331 128 3847 18 
Q 3363 -91 2847 -91 
Q 1681 -91 1000 561 
Q 319 1213 319 2328 
Q 319 3456 1012 4103 
Q 1706 4750 2913 4750 
Q 3378 4750 3804 4662 
Q 4231 4575 4609 4403 
L 4609 3438 
Q 4219 3659 3833 3768 
Q 3447 3878 3059 3878 
Q 2341 3878 1952 3476 
Q 1563 3075 1563 2328 
Q 1563 1588 1938 1184 
Q 2313 781 3003 781 
Q 3191 781 3352 804 
Q 3513 828 3641 878 
L 3641 1784 
L 2906 1784 
L 2906 2591 
L 4781 2591 
L 4781 347 
z
" id="DejaVuSans-Bold-47" transform="scale(0.015625)"/>
      </defs>
      <use xlink:href="#DejaVuSans-Bold-53"/>
      <use x="72.021484" xlink:href="#DejaVuSans-Bold-45"/>
      <use x="140.332031" xlink:href="#DejaVuSans-Bold-47"/>
      <use x="222.412109" xlink:href="#DejaVuSans-Bold-4d"/>
     </g>
    </g>
   </g>
   <g id="matplotlib.axis_4">
    <g id="ytick_12">
     <g id="line2d_20">
      <g>
       <use style="stroke:#000000;stroke-width:0.8;" x="305.96" xlink:href="#mb8d7f81ba0" y="278.889421"/>
      </g>
     </g>
     <g id="text_23">
      <!-- AP-Cup -->
      <g transform="translate(263.038125 282.68864)scale(0.1 -0.1)">
       <use xlink:href="#DejaVuSans-41"/>
       <use x="68.408203" xlink:href="#DejaVuSans-50"/>
       <use x="126.460938" xlink:href="#DejaVuSans-2d"/>
       <use x="162.544922" xlink:href="#DejaVuSans-43"/>
       <use x="232.369141" xlink:href="#DejaVuSans-75"/>
       <use x="295.748047" xlink:href="#DejaVuSans-70"/>
      </g>
     </g>
    </g>
    <g id="ytick_13">
     <g id="line2d_21">
      <g>
       <use style="stroke:#000000;stroke-width:0.8;" x="305.96" xlink:href="#mb8d7f81ba0" y="254.555537"/>
      </g>
     </g>
     <g id="text_24">
      <!-- AP-Couch -->
      <g transform="translate(251.431875 258.354756)scale(0.1 -0.1)">
       <use xlink:href="#DejaVuSans-41"/>
       <use x="68.408203" xlink:href="#DejaVuSans-50"/>
       <use x="126.460938" xlink:href="#DejaVuSans-2d"/>
       <use x="162.544922" xlink:href="#DejaVuSans-43"/>
       <use x="232.369141" xlink:href="#DejaVuSans-6f"/>
       <use x="293.550781" xlink:href="#DejaVuSans-75"/>
       <use x="356.929688" xlink:href="#DejaVuSans-63"/>
       <use x="411.910156" xlink:href="#DejaVuSans-68"/>
      </g>
     </g>
    </g>
    <g id="ytick_14">
     <g id="line2d_22">
      <g>
       <use style="stroke:#000000;stroke-width:0.8;" x="305.96" xlink:href="#mb8d7f81ba0" y="230.221653"/>
      </g>
     </g>
     <g id="text_25">
      <!-- AP-Plant -->
      <g transform="translate(257.513125 234.020872)scale(0.1 -0.1)">
       <use xlink:href="#DejaVuSans-41"/>
       <use x="68.408203" xlink:href="#DejaVuSans-50"/>
       <use x="126.460938" xlink:href="#DejaVuSans-2d"/>
       <use x="162.544922" xlink:href="#DejaVuSans-50"/>
       <use x="222.847656" xlink:href="#DejaVuSans-6c"/>
       <use x="250.630859" xlink:href="#DejaVuSans-61"/>
       <use x="311.910156" xlink:href="#DejaVuSans-6e"/>
       <use x="375.289062" xlink:href="#DejaVuSans-74"/>
      </g>
     </g>
    </g>
    <g id="ytick_15">
     <g id="line2d_23">
      <g>
       <use style="stroke:#000000;stroke-width:0.8;" x="305.96" xlink:href="#mb8d7f81ba0" y="205.887769"/>
      </g>
     </g>
     <g id="text_26">
      <!-- AP-Painting -->
      <g transform="translate(242.499062 209.686987)scale(0.1 -0.1)">
       <use xlink:href="#DejaVuSans-41"/>
       <use x="68.408203" xlink:href="#DejaVuSans-50"/>
       <use x="126.460938" xlink:href="#DejaVuSans-2d"/>
       <use x="162.544922" xlink:href="#DejaVuSans-50"/>
       <use x="218.347656" xlink:href="#DejaVuSans-61"/>
       <use x="279.626953" xlink:href="#DejaVuSans-69"/>
       <use x="307.410156" xlink:href="#DejaVuSans-6e"/>
       <use x="370.789062" xlink:href="#DejaVuSans-74"/>
       <use x="409.998047" xlink:href="#DejaVuSans-69"/>
       <use x="437.78125" xlink:href="#DejaVuSans-6e"/>
       <use x="501.160156" xlink:href="#DejaVuSans-67"/>
      </g>
     </g>
    </g>
    <g id="ytick_16">
     <g id="line2d_24">
      <g>
       <use style="stroke:#000000;stroke-width:0.8;" x="305.96" xlink:href="#mb8d7f81ba0" y="181.553884"/>
      </g>
     </g>
     <g id="text_27">
      <!-- AP-Chair -->
      <g transform="translate(256.369375 185.353103)scale(0.1 -0.1)">
       <use xlink:href="#DejaVuSans-41"/>
       <use x="68.408203" xlink:href="#DejaVuSans-50"/>
       <use x="126.460938" xlink:href="#DejaVuSans-2d"/>
       <use x="162.544922" xlink:href="#DejaVuSans-43"/>
       <use x="232.369141" xlink:href="#DejaVuSans-68"/>
       <use x="295.748047" xlink:href="#DejaVuSans-61"/>
       <use x="357.027344" xlink:href="#DejaVuSans-69"/>
       <use x="384.810547" xlink:href="#DejaVuSans-72"/>
      </g>
     </g>
    </g>
    <g id="ytick_17">
     <g id="line2d_25">
      <g>
       <use style="stroke:#000000;stroke-width:0.8;" x="305.96" xlink:href="#mb8d7f81ba0" y="157.22"/>
      </g>
     </g>
     <g id="text_28">
      <!-- APl -->
      <g transform="translate(283.311562 161.019219)scale(0.1 -0.1)">
       <use xlink:href="#DejaVuSans-41"/>
       <use x="68.408203" xlink:href="#DejaVuSans-50"/>
       <use x="128.710938" xlink:href="#DejaVuSans-6c"/>
      </g>
     </g>
    </g>
    <g id="ytick_18">
     <g id="line2d_26">
      <g>
       <use style="stroke:#000000;stroke-width:0.8;" x="305.96" xlink:href="#mb8d7f81ba0" y="132.886116"/>
      </g>
     </g>
     <g id="text_29">
      <!-- APm -->
      <g transform="translate(276.349063 136.685334)scale(0.1 -0.1)">
       <use xlink:href="#DejaVuSans-41"/>
       <use x="68.408203" xlink:href="#DejaVuSans-50"/>
       <use x="128.710938" xlink:href="#DejaVuSans-6d"/>
      </g>
     </g>
    </g>
    <g id="ytick_19">
     <g id="line2d_27">
      <g>
       <use style="stroke:#000000;stroke-width:0.8;" x="305.96" xlink:href="#mb8d7f81ba0" y="108.552231"/>
      </g>
     </g>
     <g id="text_30">
      <!-- APs -->
      <g transform="translate(281.055312 112.35145)scale(0.1 -0.1)">
       <use xlink:href="#DejaVuSans-41"/>
       <use x="68.408203" xlink:href="#DejaVuSans-50"/>
       <use x="126.960938" xlink:href="#DejaVuSans-73"/>
      </g>
     </g>
    </g>
    <g id="ytick_20">
     <g id="line2d_28">
      <g>
       <use style="stroke:#000000;stroke-width:0.8;" x="305.96" xlink:href="#mb8d7f81ba0" y="84.218347"/>
      </g>
     </g>
     <g id="text_31">
      <!-- AP75 -->
      <g transform="translate(273.364688 88.017566)scale(0.1 -0.1)">
       <use xlink:href="#DejaVuSans-41"/>
       <use x="68.408203" xlink:href="#DejaVuSans-50"/>
       <use x="128.710938" xlink:href="#DejaVuSans-37"/>
       <use x="192.333984" xlink:href="#DejaVuSans-35"/>
      </g>
     </g>
    </g>
    <g id="ytick_21">
     <g id="line2d_29">
      <g>
       <use style="stroke:#000000;stroke-width:0.8;" x="305.96" xlink:href="#mb8d7f81ba0" y="59.884463"/>
      </g>
     </g>
     <g id="text_32">
      <!-- AP50 -->
      <g transform="translate(273.364688 63.683682)scale(0.1 -0.1)">
       <use xlink:href="#DejaVuSans-41"/>
       <use x="68.408203" xlink:href="#DejaVuSans-50"/>
       <use x="128.710938" xlink:href="#DejaVuSans-35"/>
       <use x="192.333984" xlink:href="#DejaVuSans-30"/>
      </g>
     </g>
    </g>
    <g id="ytick_22">
     <g id="line2d_30">
      <g>
       <use style="stroke:#000000;stroke-width:0.8;" x="305.96" xlink:href="#mb8d7f81ba0" y="35.550579"/>
      </g>
     </g>
     <g id="text_33">
      <!-- AP -->
      <g transform="translate(286.089687 39.349797)scale(0.1 -0.1)">
       <use xlink:href="#DejaVuSans-41"/>
       <use x="68.408203" xlink:href="#DejaVuSans-50"/>
      </g>
     </g>
    </g>
   </g>
   <g id="patch_96">
    <path d="M 305.96 304.44 
L 305.96 10 
" style="fill:none;stroke:#000000;stroke-linecap:square;stroke-linejoin:miter;stroke-width:0.8;"/>
   </g>
   <g id="patch_97">
    <path d="M 450.8 304.44 
L 450.8 10 
" style="fill:none;stroke:#000000;stroke-linecap:square;stroke-linejoin:miter;stroke-width:0.8;"/>
   </g>
   <g id="patch_98">
    <path d="M 305.96 304.44 
L 450.8 304.44 
" style="fill:none;stroke:#000000;stroke-linecap:square;stroke-linejoin:miter;stroke-width:0.8;"/>
   </g>
   <g id="patch_99">
    <path d="M 305.96 10 
L 450.8 10 
" style="fill:none;stroke:#000000;stroke-linecap:square;stroke-linejoin:miter;stroke-width:0.8;"/>
   </g>
   <g id="legend_1">
    <g id="patch_100">
     <path d="M 256.770312 299.44 
L 443.8 299.44 
Q 445.8 299.44 445.8 297.44 
L 445.8 239.7275 
Q 445.8 237.7275 443.8 237.7275 
L 256.770312 237.7275 
Q 254.770312 237.7275 254.770312 239.7275 
L 254.770312 297.44 
Q 254.770312 299.44 256.770312 299.44 
z
" style="fill:#ffffff;opacity:0.8;stroke:#cccccc;stroke-linejoin:miter;"/>
    </g>
    <g id="patch_101">
     <path d="M 258.770312 249.325937 
L 278.770312 249.325937 
L 278.770312 242.325937 
L 258.770312 242.325937 
z
" style="fill:#1f77b4;"/>
    </g>
    <g id="text_34">
     <!-- training original -->
     <g transform="translate(286.770312 249.325937)scale(0.1 -0.1)">
      <defs>
       <path id="DejaVuSans-20" transform="scale(0.015625)"/>
      </defs>
      <use xlink:href="#DejaVuSans-74"/>
      <use x="39.208984" xlink:href="#DejaVuSans-72"/>
      <use x="80.322266" xlink:href="#DejaVuSans-61"/>
      <use x="141.601562" xlink:href="#DejaVuSans-69"/>
      <use x="169.384766" xlink:href="#DejaVuSans-6e"/>
      <use x="232.763672" xlink:href="#DejaVuSans-69"/>
      <use x="260.546875" xlink:href="#DejaVuSans-6e"/>
      <use x="323.925781" xlink:href="#DejaVuSans-67"/>
      <use x="387.402344" xlink:href="#DejaVuSans-20"/>
      <use x="419.189453" xlink:href="#DejaVuSans-6f"/>
      <use x="480.371094" xlink:href="#DejaVuSans-72"/>
      <use x="521.484375" xlink:href="#DejaVuSans-69"/>
      <use x="549.267578" xlink:href="#DejaVuSans-67"/>
      <use x="612.744141" xlink:href="#DejaVuSans-69"/>
      <use x="640.527344" xlink:href="#DejaVuSans-6e"/>
      <use x="703.90625" xlink:href="#DejaVuSans-61"/>
      <use x="765.185547" xlink:href="#DejaVuSans-6c"/>
     </g>
    </g>
    <g id="patch_102">
     <path d="M 258.770312 264.004062 
L 278.770312 264.004062 
L 278.770312 257.004062 
L 258.770312 257.004062 
z
" style="fill:#ff7f0e;"/>
    </g>
    <g id="text_35">
     <!-- synthetic with color alterations -->
     <g transform="translate(286.770312 264.004062)scale(0.1 -0.1)">
      <defs>
       <path d="M 2059 -325 
Q 1816 -950 1584 -1140 
Q 1353 -1331 966 -1331 
L 506 -1331 
L 506 -850 
L 844 -850 
Q 1081 -850 1212 -737 
Q 1344 -625 1503 -206 
L 1606 56 
L 191 3500 
L 800 3500 
L 1894 763 
L 2988 3500 
L 3597 3500 
L 2059 -325 
z
" id="DejaVuSans-79" transform="scale(0.015625)"/>
       <path d="M 3597 1894 
L 3597 1613 
L 953 1613 
Q 991 1019 1311 708 
Q 1631 397 2203 397 
Q 2534 397 2845 478 
Q 3156 559 3463 722 
L 3463 178 
Q 3153 47 2828 -22 
Q 2503 -91 2169 -91 
Q 1331 -91 842 396 
Q 353 884 353 1716 
Q 353 2575 817 3079 
Q 1281 3584 2069 3584 
Q 2775 3584 3186 3129 
Q 3597 2675 3597 1894 
z
M 3022 2063 
Q 3016 2534 2758 2815 
Q 2500 3097 2075 3097 
Q 1594 3097 1305 2825 
Q 1016 2553 972 2059 
L 3022 2063 
z
" id="DejaVuSans-65" transform="scale(0.015625)"/>
       <path d="M 269 3500 
L 844 3500 
L 1563 769 
L 2278 3500 
L 2956 3500 
L 3675 769 
L 4391 3500 
L 4966 3500 
L 4050 0 
L 3372 0 
L 2619 2869 
L 1863 0 
L 1184 0 
L 269 3500 
z
" id="DejaVuSans-77" transform="scale(0.015625)"/>
      </defs>
      <use xlink:href="#DejaVuSans-73"/>
      <use x="52.099609" xlink:href="#DejaVuSans-79"/>
      <use x="111.279297" xlink:href="#DejaVuSans-6e"/>
      <use x="174.658203" xlink:href="#DejaVuSans-74"/>
      <use x="213.867188" xlink:href="#DejaVuSans-68"/>
      <use x="277.246094" xlink:href="#DejaVuSans-65"/>
      <use x="338.769531" xlink:href="#DejaVuSans-74"/>
      <use x="377.978516" xlink:href="#DejaVuSans-69"/>
      <use x="405.761719" xlink:href="#DejaVuSans-63"/>
      <use x="460.742188" xlink:href="#DejaVuSans-20"/>
      <use x="492.529297" xlink:href="#DejaVuSans-77"/>
      <use x="574.316406" xlink:href="#DejaVuSans-69"/>
      <use x="602.099609" xlink:href="#DejaVuSans-74"/>
      <use x="641.308594" xlink:href="#DejaVuSans-68"/>
      <use x="704.6875" xlink:href="#DejaVuSans-20"/>
      <use x="736.474609" xlink:href="#DejaVuSans-63"/>
      <use x="791.455078" xlink:href="#DejaVuSans-6f"/>
      <use x="852.636719" xlink:href="#DejaVuSans-6c"/>
      <use x="880.419922" xlink:href="#DejaVuSans-6f"/>
      <use x="941.601562" xlink:href="#DejaVuSans-72"/>
      <use x="982.714844" xlink:href="#DejaVuSans-20"/>
      <use x="1014.501953" xlink:href="#DejaVuSans-61"/>
      <use x="1075.78125" xlink:href="#DejaVuSans-6c"/>
      <use x="1103.564453" xlink:href="#DejaVuSans-74"/>
      <use x="1142.773438" xlink:href="#DejaVuSans-65"/>
      <use x="1204.296875" xlink:href="#DejaVuSans-72"/>
      <use x="1245.410156" xlink:href="#DejaVuSans-61"/>
      <use x="1306.689453" xlink:href="#DejaVuSans-74"/>
      <use x="1345.898438" xlink:href="#DejaVuSans-69"/>
      <use x="1373.681641" xlink:href="#DejaVuSans-6f"/>
      <use x="1434.863281" xlink:href="#DejaVuSans-6e"/>
      <use x="1498.242188" xlink:href="#DejaVuSans-73"/>
     </g>
    </g>
    <g id="patch_103">
     <path d="M 258.770312 278.682187 
L 278.770312 278.682187 
L 278.770312 271.682187 
L 258.770312 271.682187 
z
" style="fill:#2ca02c;"/>
    </g>
    <g id="text_36">
     <!-- synthetic no color alterations -->
     <g transform="translate(286.770312 278.682187)scale(0.1 -0.1)">
      <use xlink:href="#DejaVuSans-73"/>
      <use x="52.099609" xlink:href="#DejaVuSans-79"/>
      <use x="111.279297" xlink:href="#DejaVuSans-6e"/>
      <use x="174.658203" xlink:href="#DejaVuSans-74"/>
      <use x="213.867188" xlink:href="#DejaVuSans-68"/>
      <use x="277.246094" xlink:href="#DejaVuSans-65"/>
      <use x="338.769531" xlink:href="#DejaVuSans-74"/>
      <use x="377.978516" xlink:href="#DejaVuSans-69"/>
      <use x="405.761719" xlink:href="#DejaVuSans-63"/>
      <use x="460.742188" xlink:href="#DejaVuSans-20"/>
      <use x="492.529297" xlink:href="#DejaVuSans-6e"/>
      <use x="555.908203" xlink:href="#DejaVuSans-6f"/>
      <use x="617.089844" xlink:href="#DejaVuSans-20"/>
      <use x="648.876953" xlink:href="#DejaVuSans-63"/>
      <use x="703.857422" xlink:href="#DejaVuSans-6f"/>
      <use x="765.039062" xlink:href="#DejaVuSans-6c"/>
      <use x="792.822266" xlink:href="#DejaVuSans-6f"/>
      <use x="854.003906" xlink:href="#DejaVuSans-72"/>
      <use x="895.117188" xlink:href="#DejaVuSans-20"/>
      <use x="926.904297" xlink:href="#DejaVuSans-61"/>
      <use x="988.183594" xlink:href="#DejaVuSans-6c"/>
      <use x="1015.966797" xlink:href="#DejaVuSans-74"/>
      <use x="1055.175781" xlink:href="#DejaVuSans-65"/>
      <use x="1116.699219" xlink:href="#DejaVuSans-72"/>
      <use x="1157.8125" xlink:href="#DejaVuSans-61"/>
      <use x="1219.091797" xlink:href="#DejaVuSans-74"/>
      <use x="1258.300781" xlink:href="#DejaVuSans-69"/>
      <use x="1286.083984" xlink:href="#DejaVuSans-6f"/>
      <use x="1347.265625" xlink:href="#DejaVuSans-6e"/>
      <use x="1410.644531" xlink:href="#DejaVuSans-73"/>
     </g>
    </g>
    <g id="patch_104">
     <path d="M 258.770312 293.360312 
L 278.770312 293.360312 
L 278.770312 286.360312 
L 258.770312 286.360312 
z
" style="fill:#d62728;"/>
    </g>
    <g id="text_37">
     <!-- synthetic with scaling -->
     <g transform="translate(286.770312 293.360312)scale(0.1 -0.1)">
      <use xlink:href="#DejaVuSans-73"/>
      <use x="52.099609" xlink:href="#DejaVuSans-79"/>
      <use x="111.279297" xlink:href="#DejaVuSans-6e"/>
      <use x="174.658203" xlink:href="#DejaVuSans-74"/>
      <use x="213.867188" xlink:href="#DejaVuSans-68"/>
      <use x="277.246094" xlink:href="#DejaVuSans-65"/>
      <use x="338.769531" xlink:href="#DejaVuSans-74"/>
      <use x="377.978516" xlink:href="#DejaVuSans-69"/>
      <use x="405.761719" xlink:href="#DejaVuSans-63"/>
      <use x="460.742188" xlink:href="#DejaVuSans-20"/>
      <use x="492.529297" xlink:href="#DejaVuSans-77"/>
      <use x="574.316406" xlink:href="#DejaVuSans-69"/>
      <use x="602.099609" xlink:href="#DejaVuSans-74"/>
      <use x="641.308594" xlink:href="#DejaVuSans-68"/>
      <use x="704.6875" xlink:href="#DejaVuSans-20"/>
      <use x="736.474609" xlink:href="#DejaVuSans-73"/>
      <use x="788.574219" xlink:href="#DejaVuSans-63"/>
      <use x="843.554688" xlink:href="#DejaVuSans-61"/>
      <use x="904.833984" xlink:href="#DejaVuSans-6c"/>
      <use x="932.617188" xlink:href="#DejaVuSans-69"/>
      <use x="960.400391" xlink:href="#DejaVuSans-6e"/>
      <use x="1023.779297" xlink:href="#DejaVuSans-67"/>
     </g>
    </g>
   </g>
  </g>
 </g>
 <defs>
  <clipPath id="p56563d0b12">
   <rect height="294.44" width="144.84" x="87.6" y="10"/>
  </clipPath>
  <clipPath id="p75f6ba31bc">
   <rect height="294.44" width="144.84" x="305.96" y="10"/>
  </clipPath>
 </defs>
</svg>
